<svg width="40" height="40" viewBox="0 0 40 40" fill="none" xmlns="http://www.w3.org/2000/svg">
<path d="M7.03126 34.1417C7.03126 33.4946 7.55595 32.9699 8.20313 32.9699H11.6839C12.9783 32.9699 14.0277 31.9208 14.0277 30.6266C14.0277 29.3323 12.9783 28.2832 11.6839 28.2832H7.86204C5.19438 28.2832 2.58414 29.2084 0.511949 30.8881C0.241089 31.1077 0.082104 31.4365 0.0781978 31.7852L7.26308e-05 38.8154C-0.00680238 39.4304 0.474995 40.0001 1.19132 40.0001H15.1563C17.986 40.0001 20.3533 37.9842 20.8978 35.3134H8.20313C7.55595 35.3134 7.03126 34.7888 7.03126 34.1417V34.1417Z" fill="#FF926B"/>
<path d="M16.4844 17.2695H18.8281V21.1752H16.4844V17.2695Z" fill="#FF926B"/>
<path d="M27.0313 17.2695H21.1719V22.3469C21.1719 22.994 20.6472 23.5186 20 23.5186H15.3125C14.6653 23.5186 14.1406 22.994 14.1406 22.3469V17.2695H8.20313C7.55594 17.2695 7.03125 17.7941 7.03125 18.4413V25.9656C7.76336 25.9217 7.99032 25.9476 11.6124 25.9401C15.2171 25.9401 17.5642 29.8277 15.7424 32.9703H22.8107C23.3049 32.9703 23.675 33.4233 23.5763 33.9074L23.2896 35.3137H27.0313C27.6785 35.3137 28.2032 34.7891 28.2032 34.1419V18.4412C28.2032 17.7941 27.6785 17.2695 27.0313 17.2695V17.2695Z" fill="#FF926B"/>
<path d="M26.2107 10.6689C23.9098 10.6689 23.028 13.699 24.9865 14.9261C26.8856 14.9347 26.9991 14.9053 27.3918 14.9544C28.0726 14.5499 28.5154 13.8086 28.5154 12.9733C28.5154 11.7104 27.4876 10.6689 26.2107 10.6689V10.6689Z" fill="#FF926B"/>
<path d="M21.992 14.9261C20.316 11.3035 23.721 7.36118 27.5584 8.52541C27.8424 6.81696 28.8359 6.07227 29.821 4.61523H16.4063C15.7595 4.61523 15.2344 5.13985 15.2344 5.78696V14.9261H21.992Z" fill="#FF926B"/>
<path d="M30.7754 13.8593C30.6082 14.73 30.1987 15.5186 29.6133 16.1466C30.1461 16.7629 30.4695 17.565 30.4695 18.4417V21.0194H36.3288C36.976 21.0194 37.5007 20.4948 37.5007 19.8477V10.2461L36.1876 12.0919C34.9982 13.764 32.8196 14.5389 30.7754 13.8593Z" fill="#FF926B"/>
<path d="M38.8277 0.00640971C36.1015 0.154692 31.9128 -0.692109 26.7246 2.25525L34.516 2.25697L30.3258 7.84894C29.5272 8.91473 29.7282 10.4235 30.7781 11.243C31.8766 12.1006 33.4688 11.8685 34.2766 10.7329L36.4011 7.74652H39.9996V1.17813C39.9996 0.531021 39.4749 0.00640971 38.8277 0.00640971V0.00640971Z" fill="#FF926B"/>
</svg>
