<svg width="39" height="39" viewBox="0 0 39 39" fill="none" xmlns="http://www.w3.org/2000/svg">
<path d="M35.75 23.1736V6.49997C35.75 4.70757 34.2924 3.24995 32.4999 3.24995H28.4375C27.9884 3.24995 27.6249 3.61337 27.6249 4.06247V8.12495C27.6249 9.02073 26.8958 9.74992 26 9.74992C25.1042 9.74992 24.375 9.02073 24.375 8.12495C24.375 7.44572 24.8114 6.83399 25.4604 6.60311C25.7842 6.48725 26 6.18097 26 5.83743V0.812525C26 0.363416 25.6366 0 25.1875 0C24.7384 0 24.375 0.363416 24.375 0.812525V3.25003H12.1875C11.7384 3.25003 11.375 3.61344 11.375 4.06255V8.12503C11.375 9.02081 10.6458 9.75 9.75 9.75C8.85422 9.75 8.12503 9.02081 8.12503 8.12503C8.12503 7.4458 8.56141 6.83406 9.21047 6.60319C9.53421 6.48733 9.75 6.18104 9.75 5.83751V0.812525C9.75 0.363416 9.38658 0 8.93747 0C8.48837 0 8.12495 0.363416 8.12495 0.812525V3.25003H3.24995C1.45755 3.25003 0 4.70757 0 6.49997V32.4999C0 34.2923 1.45755 35.75 3.25003 35.75H23.1736C24.8143 37.7337 27.2931 39 30.0625 39C34.9907 39 39 34.9907 39 30.0625C39 27.2931 37.7337 24.8143 35.75 23.1736ZM21.125 30.0625C21.125 30.9083 21.2508 31.7239 21.4714 32.5H3.25003V13H32.5V21.4715C31.7239 21.2509 30.9083 21.1251 30.0625 21.1251C25.1344 21.125 21.125 25.1344 21.125 30.0625ZM34.6995 28.1994L29.012 33.887C28.8533 34.0456 28.6453 34.125 28.4375 34.125C28.2296 34.125 28.0217 34.0456 27.863 33.887L25.4255 31.4495C25.1081 31.1321 25.1081 30.6179 25.4255 30.3006C25.7429 29.9832 26.2571 29.9832 26.5744 30.3006L28.4374 32.1636L33.5504 27.0505C33.8678 26.7331 34.382 26.7331 34.6993 27.0505C35.0168 27.3679 35.0168 27.8821 34.6995 28.1994Z" fill="#FF926B"/>
</svg>
