<svg width="36" height="36" viewBox="0 0 36 36" fill="none" xmlns="http://www.w3.org/2000/svg">
<path d="M35.9889 15.9105C35.9301 15.3496 35.6395 14.8324 35.1918 14.4899L33.1429 12.8947L33.913 10.3536C34.0772 9.81138 34.0091 9.21894 33.726 8.72785C33.4425 8.23704 32.9635 7.8819 32.4117 7.75281L29.834 7.15103L29.505 4.52474C29.4344 3.96224 29.1312 3.44863 28.6731 3.11629C28.2144 2.78258 27.6318 2.65267 27.0756 2.75978L24.476 3.25829L23.1068 0.992628C22.5619 0.090922 21.4177 -0.249655 20.4459 0.199687C20.3775 0.231273 20.3116 0.269176 20.2542 0.309825L17.9979 1.88142L15.8256 0.368328C15.3606 0.0447791 14.7764 -0.0730496 14.2221 0.0445044C13.6679 0.162059 13.1817 0.508129 12.8887 0.993177L11.52 3.25857L8.92012 2.75978C8.36339 2.65322 7.78139 2.78313 7.32353 3.11602C6.86485 3.44918 6.56163 3.96279 6.49131 4.52474L6.16227 7.15131L3.43601 7.7877L3.30801 7.82944L3.26077 7.85004C2.27035 8.28318 1.77487 9.33622 2.08303 10.3536L2.8529 12.8947L0.716056 14.5569L0.592184 14.6646L0.557303 14.7028C-0.159832 15.4861 -0.187847 16.671 0.490561 17.4631L2.16351 19.4637L0.807517 21.9244L0.753409 22.0475L0.737754 22.0933C0.399649 23.1038 0.860252 24.2019 1.80892 24.6471L4.20505 25.7716L3.98065 28.4088C3.93259 28.9738 4.12265 29.5393 4.50168 29.9601C4.88071 30.3812 5.42316 30.6292 5.99006 30.6407L8.6364 30.6934L9.50432 33.1937C9.68999 33.7293 10.0935 34.1687 10.6109 34.3989C11.1284 34.6293 11.7247 34.6354 12.2476 34.4154L14.6869 33.3873L16.6015 35.4305L16.7018 35.5198L16.7405 35.5486C17.1187 35.8279 17.5606 35.9647 17.9984 35.9647C18.5524 35.9647 19.0995 35.7455 19.4997 35.3184L21.3097 33.3873L23.7492 34.4156C24.2711 34.6354 24.8671 34.6293 25.3846 34.3991C25.9026 34.1687 26.306 33.7293 26.4917 33.1939L27.3599 30.6934L30.1592 30.6377L30.2922 30.6231L30.34 30.6135C31.3837 30.4007 32.1041 29.4528 32.0154 28.4091L31.7913 25.7716L34.1877 24.6471C34.7004 24.4065 35.0951 23.9594 35.2704 23.4202C35.4453 22.8813 35.389 22.2875 35.1155 21.7912L33.8328 19.4637L35.506 17.4631C35.8716 17.036 36.0477 16.4708 35.9889 15.9105ZM31.8374 18.559C31.5059 18.9504 31.4493 19.5132 31.6973 19.9628L33.239 22.7605L30.3471 24.1176C29.8783 24.3378 29.5929 24.8325 29.6366 25.3486L29.9071 28.5313L26.7134 28.595C26.1956 28.6055 25.7334 28.9411 25.5636 29.4306L24.5161 32.4482L21.5728 31.2076C21.0955 31.0066 20.5368 31.1249 20.1822 31.5031L17.9979 33.8339L15.8135 31.5029C15.5743 31.2474 15.2417 31.1107 14.9038 31.1107C14.7415 31.1107 14.5781 31.1422 14.4235 31.2076L11.4797 32.4482L10.4324 29.4314C10.2629 28.9417 9.80068 28.6055 9.2824 28.595L6.08839 28.5313L6.35893 25.3486C6.40287 24.8325 6.11723 24.3378 5.64838 24.1176L2.75677 22.7605L4.29843 19.9631C4.54673 19.5129 4.48987 18.9504 4.15808 18.5587L2.1289 16.1321L4.61512 14.198C5.02216 13.884 5.1952 13.3446 5.04578 12.853L4.11963 9.796L7.23069 9.06925C7.73469 8.95143 8.11675 8.52735 8.18156 8.01319L8.57872 4.84362L11.7164 5.4454C12.2251 5.54263 12.7464 5.31027 13.0145 4.86724L14.6663 2.13329L17.2873 3.95867C17.7125 4.25475 18.2838 4.25503 18.7087 3.95867L21.3298 2.13301L22.9818 4.86642C23.2494 5.30999 23.7718 5.54263 24.2804 5.44513L27.4176 4.84335L27.8147 8.01264C27.879 8.52653 28.2611 8.95115 28.7659 9.06925L31.8767 9.79573L30.9503 12.8527C30.8011 13.3454 30.9744 13.8846 31.3815 14.1982L33.8666 16.1332L31.8374 18.559Z" fill="#FF926B"/>
<path d="M18.1111 9.02051C13.168 9.02051 9.14648 13.0418 9.14648 17.9851C9.14648 22.9281 13.168 26.9497 18.1111 26.9497C23.0544 26.9497 27.0759 22.9281 27.0759 17.9851C27.0759 13.0418 23.0541 9.02051 18.1111 9.02051ZM18.1111 24.8387C14.332 24.8387 11.2572 21.7641 11.2572 17.9851C11.2572 14.2058 14.332 11.1313 18.1111 11.1313C21.8904 11.1313 24.9649 14.2058 24.9649 17.9851C24.9649 21.7641 21.8904 24.8387 18.1111 24.8387Z" fill="#FF926B"/>
<path d="M20.6876 15.2008L16.5234 19.3646L15.3935 18.2344C14.9812 17.8224 14.313 17.8224 13.901 18.2344C13.4887 18.6467 13.4887 19.3149 13.901 19.7272L15.7772 21.6034C15.9832 21.8096 16.2535 21.9126 16.5234 21.9126C16.7934 21.9126 17.0637 21.8096 17.2697 21.6034L22.1801 16.6933C22.592 16.281 22.592 15.6128 22.1801 15.2008C21.7678 14.7885 21.0995 14.7885 20.6876 15.2008Z" fill="#FF926B"/>
</svg>
